<?xml version="1.0" encoding="UTF-8" standalone="no"?>
<!DOCTYPE svg PUBLIC "-//W3C//DTD SVG 1.1//EN"
 "http://www.w3.org/Graphics/SVG/1.1/DTD/svg11.dtd">
<!-- Generated by graphviz version 2.40.1 (20161225.0304)
 -->
<!-- Title: dependencies Pages: 1 -->
<svg width="504pt" height="211pt"
 viewBox="0.00 0.00 504.00 211.00" xmlns="http://www.w3.org/2000/svg" xmlns:xlink="http://www.w3.org/1999/xlink">
<g id="graph0" class="graph" transform="scale(1 1) rotate(0) translate(4 207)">
<title>dependencies</title>
<polygon fill="#ffffff" stroke="transparent" points="-4,4 -4,-207 500,-207 500,4 -4,4"/>
<text text-anchor="start" x="227.0091" y="-42.4" font-family="sans-serif" font-weight="bold" font-size="14.00" fill="#000000">Legend</text>
<polygon fill="#ffffb3" stroke="transparent" points="14,-10 14,-30 34,-30 34,-10 14,-10"/>
<text text-anchor="start" x="37.629" y="-15.4" font-family="sans-serif" font-size="14.00" fill="#000000"> &#160;Declarations</text>
<polygon fill="#8dd3c7" stroke="transparent" points="127,-10 127,-30 147,-30 147,-10 127,-10"/>
<text text-anchor="start" x="150.7251" y="-15.4" font-family="sans-serif" font-size="14.00" fill="#000000"> &#160;Module</text>
<polygon fill="#80b1d3" stroke="transparent" points="213,-10 213,-30 233,-30 233,-10 213,-10"/>
<text text-anchor="start" x="236.7812" y="-15.4" font-family="sans-serif" font-size="14.00" fill="#000000"> &#160;Bootstrap</text>
<polygon fill="#fdb462" stroke="transparent" points="310,-10 310,-30 330,-30 330,-10 310,-10"/>
<text text-anchor="start" x="333.6732" y="-15.4" font-family="sans-serif" font-size="14.00" fill="#000000"> &#160;Providers</text>
<polygon fill="#fb8072" stroke="transparent" points="406,-10 406,-30 426,-30 426,-10 406,-10"/>
<text text-anchor="start" x="429.7258" y="-15.4" font-family="sans-serif" font-size="14.00" fill="#000000"> &#160;Exports</text>
<g id="clust1" class="cluster">
<title>cluster_TaskModule</title>
<polygon fill="none" stroke="#000000" stroke-dasharray="1,5" points="107.5,-70 107.5,-195 388.5,-195 388.5,-70 107.5,-70"/>
</g>
<g id="clust6" class="cluster">
<title>cluster_TaskModule_providers</title>
<polygon fill="none" stroke="#000000" points="115.5,-78 115.5,-130 380.5,-130 380.5,-78 115.5,-78"/>
</g>
<!-- AppService -->
<g id="node1" class="node">
<title>AppService</title>
<ellipse fill="#fdb462" stroke="#000000" cx="315.5" cy="-104" rx="56.7406" ry="18"/>
<text text-anchor="middle" x="315.5" y="-99.8" font-family="Times,serif" font-size="14.00" fill="#000000">AppService</text>
</g>
<!-- TaskModule -->
<g id="node3" class="node">
<title>TaskModule</title>
<polygon fill="#8dd3c7" stroke="#000000" points="291.7619,-187 288.7619,-191 267.7619,-191 264.7619,-187 205.2381,-187 205.2381,-151 291.7619,-151 291.7619,-187"/>
<text text-anchor="middle" x="248.5" y="-164.8" font-family="Times,serif" font-size="14.00" fill="#000000">TaskModule</text>
</g>
<!-- AppService&#45;&gt;TaskModule -->
<g id="edge1" class="edge">
<title>AppService&#45;&gt;TaskModule</title>
<path fill="none" stroke="#000000" d="M275.3803,-116.8419C275.3803,-116.8419 275.3803,-140.5231 275.3803,-140.5231"/>
<polygon fill="#000000" stroke="#000000" points="271.8804,-140.523 275.3803,-150.5231 278.8804,-140.5231 271.8804,-140.523"/>
</g>
<!-- TaskService -->
<g id="node2" class="node">
<title>TaskService</title>
<ellipse fill="#fdb462" stroke="#000000" cx="182.5" cy="-104" rx="58.5251" ry="18"/>
<text text-anchor="middle" x="182.5" y="-99.8" font-family="Times,serif" font-size="14.00" fill="#000000">TaskService</text>
</g>
<!-- TaskService&#45;&gt;TaskModule -->
<g id="edge2" class="edge">
<title>TaskService&#45;&gt;TaskModule</title>
<path fill="none" stroke="#000000" d="M223.1906,-117.1537C223.1906,-117.1537 223.1906,-140.6938 223.1906,-140.6938"/>
<polygon fill="#000000" stroke="#000000" points="219.6907,-140.6938 223.1906,-150.6938 226.6907,-140.6939 219.6907,-140.6938"/>
</g>
</g>
</svg>
