<?xml version="1.0" encoding="UTF-8" standalone="no"?>
<!DOCTYPE svg PUBLIC "-//W3C//DTD SVG 1.1//EN"
 "http://www.w3.org/Graphics/SVG/1.1/DTD/svg11.dtd">
<!-- Generated by graphviz version 2.40.1 (20161225.0304)
 -->
<!-- Title: dependencies Pages: 1 -->
<svg width="504pt" height="279pt"
 viewBox="0.00 0.00 504.00 279.00" xmlns="http://www.w3.org/2000/svg" xmlns:xlink="http://www.w3.org/1999/xlink">
<g id="graph0" class="graph" transform="scale(1 1) rotate(0) translate(4 275)">
<title>dependencies</title>
<polygon fill="#ffffff" stroke="transparent" points="-4,4 -4,-275 500,-275 500,4 -4,4"/>
<text text-anchor="start" x="227.0091" y="-42.4" font-family="sans-serif" font-weight="bold" font-size="14.00" fill="#000000">Legend</text>
<polygon fill="#ffffb3" stroke="transparent" points="14,-10 14,-30 34,-30 34,-10 14,-10"/>
<text text-anchor="start" x="37.629" y="-15.4" font-family="sans-serif" font-size="14.00" fill="#000000"> &#160;Declarations</text>
<polygon fill="#8dd3c7" stroke="transparent" points="127,-10 127,-30 147,-30 147,-10 127,-10"/>
<text text-anchor="start" x="150.7251" y="-15.4" font-family="sans-serif" font-size="14.00" fill="#000000"> &#160;Module</text>
<polygon fill="#80b1d3" stroke="transparent" points="213,-10 213,-30 233,-30 233,-10 213,-10"/>
<text text-anchor="start" x="236.7812" y="-15.4" font-family="sans-serif" font-size="14.00" fill="#000000"> &#160;Bootstrap</text>
<polygon fill="#fdb462" stroke="transparent" points="310,-10 310,-30 330,-30 330,-10 310,-10"/>
<text text-anchor="start" x="333.6732" y="-15.4" font-family="sans-serif" font-size="14.00" fill="#000000"> &#160;Providers</text>
<polygon fill="#fb8072" stroke="transparent" points="406,-10 406,-30 426,-30 426,-10 406,-10"/>
<text text-anchor="start" x="429.7258" y="-15.4" font-family="sans-serif" font-size="14.00" fill="#000000"> &#160;Exports</text>
<g id="clust1" class="cluster">
<title>cluster_AppModule</title>
<polygon fill="none" stroke="#000000" stroke-dasharray="1,5" points="96,-70 96,-263 242,-263 242,-70 96,-70"/>
</g>
<g id="clust3" class="cluster">
<title>cluster_AppModule_imports</title>
<polygon fill="none" stroke="#000000" points="132,-146 132,-198 234,-198 234,-146 132,-146"/>
</g>
<g id="clust6" class="cluster">
<title>cluster_AppModule_providers</title>
<polygon fill="none" stroke="#000000" points="104,-78 104,-130 234,-130 234,-78 104,-78"/>
</g>
<g id="clust7" class="cluster">
<title>cluster_TaskModule</title>
<polygon fill="none" stroke="#000000" stroke-dasharray="1,5" points="250,-70 250,-138 400,-138 400,-70 250,-70"/>
</g>
<g id="clust12" class="cluster">
<title>cluster_TaskModule_providers</title>
<polygon fill="none" stroke="#000000" points="258,-78 258,-130 392,-130 392,-78 258,-78"/>
</g>
<!-- TaskModule -->
<g id="node1" class="node">
<title>TaskModule</title>
<polygon fill="#8dd3c7" stroke="#000000" points="226.2619,-190 223.2619,-194 202.2619,-194 199.2619,-190 139.7381,-190 139.7381,-154 226.2619,-154 226.2619,-190"/>
<text text-anchor="middle" x="183" y="-167.8" font-family="Times,serif" font-size="14.00" fill="#000000">TaskModule</text>
</g>
<!-- AppModule -->
<g id="node2" class="node">
<title>AppModule</title>
<polygon fill="#8dd3c7" stroke="#000000" points="205.6571,-255 202.6571,-259 181.6571,-259 178.6571,-255 122.3429,-255 122.3429,-219 205.6571,-219 205.6571,-255"/>
<text text-anchor="middle" x="164" y="-232.8" font-family="Times,serif" font-size="14.00" fill="#000000">AppModule</text>
</g>
<!-- TaskModule&#45;&gt;AppModule -->
<g id="edge1" class="edge">
<title>TaskModule&#45;&gt;AppModule</title>
<path fill="none" stroke="#000000" d="M172.7237,-190.1061C172.7237,-190.1061 172.7237,-208.991 172.7237,-208.991"/>
<polygon fill="#000000" stroke="#000000" points="169.2238,-208.9909 172.7237,-218.991 176.2238,-208.991 169.2238,-208.9909"/>
</g>
<!-- AppService -->
<g id="node3" class="node">
<title>AppService</title>
<ellipse fill="#fdb462" stroke="#000000" cx="169" cy="-104" rx="56.7406" ry="18"/>
<text text-anchor="middle" x="169" y="-99.8" font-family="Times,serif" font-size="14.00" fill="#000000">AppService</text>
</g>
<!-- AppService&#45;&gt;TaskModule -->
<g id="edge3" class="edge">
<title>AppService&#45;&gt;TaskModule</title>
<path fill="none" stroke="#000000" d="M182.6197,-121.5117C182.6197,-121.5117 182.6197,-143.8359 182.6197,-143.8359"/>
<polygon fill="#000000" stroke="#000000" points="179.1198,-143.8358 182.6197,-153.8359 186.1198,-143.8359 179.1198,-143.8358"/>
</g>
<!-- AppService&#45;&gt;AppModule -->
<g id="edge2" class="edge">
<title>AppService&#45;&gt;AppModule</title>
<path fill="none" stroke="#000000" d="M130.8955,-117.7324C130.8955,-117.7324 130.8955,-208.9203 130.8955,-208.9203"/>
<polygon fill="#000000" stroke="#000000" points="127.3956,-208.9202 130.8955,-218.9203 134.3956,-208.9203 127.3956,-208.9202"/>
</g>
<!-- TaskService -->
<g id="node4" class="node">
<title>TaskService</title>
<ellipse fill="#fdb462" stroke="#000000" cx="325" cy="-104" rx="58.5251" ry="18"/>
<text text-anchor="middle" x="325" y="-99.8" font-family="Times,serif" font-size="14.00" fill="#000000">TaskService</text>
</g>
<!-- TaskService&#45;&gt;TaskModule -->
<g id="edge4" class="edge">
<title>TaskService&#45;&gt;TaskModule</title>
<path fill="none" stroke="#000000" d="M325,-122.2228C325,-142.3652 325,-172 325,-172 325,-172 236.3763,-172 236.3763,-172"/>
<polygon fill="#000000" stroke="#000000" points="236.3763,-168.5001 226.3763,-172 236.3762,-175.5001 236.3763,-168.5001"/>
</g>
</g>
</svg>
